<mxfile host="65bd71144e">
    <diagram id="yljdF-pFXAPBTN3tDBmU" name="Page-1">
        <mxGraphModel dx="1976" dy="3196" grid="1" gridSize="10" guides="1" tooltips="1" connect="1" arrows="1" fold="1" page="0" pageScale="1" pageWidth="827" pageHeight="1169" math="0" shadow="0">
            <root>
                <mxCell id="0"/>
                <mxCell id="1" parent="0"/>
                <mxCell id="109" value="&lt;font style=&quot;font-size: 48px;&quot;&gt;Frontend&lt;/font&gt;" style="text;html=1;align=center;verticalAlign=middle;resizable=0;points=[];autosize=1;strokeColor=none;fillColor=none;" parent="1" vertex="1">
                    <mxGeometry x="1795" y="-580" width="220" height="70" as="geometry"/>
                </mxCell>
                <mxCell id="111" value="&lt;font size=&quot;3&quot;&gt;Einloggen&lt;/font&gt;" style="swimlane;whiteSpace=wrap;html=1;fontSize=48;startSize=60;" parent="1" vertex="1">
                    <mxGeometry x="1820" y="230" width="680" height="460" as="geometry"/>
                </mxCell>
                <mxCell id="115" value="E-Mail" style="rounded=0;whiteSpace=wrap;html=1;fontSize=18;" parent="111" vertex="1">
                    <mxGeometry x="40" y="105" width="600" height="60" as="geometry"/>
                </mxCell>
                <mxCell id="116" value="Password" style="rounded=0;whiteSpace=wrap;html=1;fontSize=18;" parent="111" vertex="1">
                    <mxGeometry x="40" y="200" width="600" height="60" as="geometry"/>
                </mxCell>
                <mxCell id="276" value="Send" style="rounded=1;whiteSpace=wrap;html=1;" vertex="1" parent="111">
                    <mxGeometry x="280" y="370" width="120" height="30" as="geometry"/>
                </mxCell>
                <mxCell id="117" value="User" style="swimlane;fontStyle=0;childLayout=stackLayout;horizontal=1;startSize=30;horizontalStack=0;resizeParent=1;resizeParentMax=0;resizeLast=0;collapsible=1;marginBottom=0;whiteSpace=wrap;html=1;" parent="1" vertex="1">
                    <mxGeometry x="6440" y="370" width="160" height="120" as="geometry"/>
                </mxCell>
                <mxCell id="118" value="Int ID" style="text;strokeColor=none;fillColor=none;align=left;verticalAlign=middle;spacingLeft=4;spacingRight=4;overflow=hidden;points=[[0,0.5],[1,0.5]];portConstraint=eastwest;rotatable=0;whiteSpace=wrap;html=1;" parent="117" vertex="1">
                    <mxGeometry y="30" width="160" height="30" as="geometry"/>
                </mxCell>
                <mxCell id="119" value="String Email" style="text;strokeColor=none;fillColor=none;align=left;verticalAlign=middle;spacingLeft=4;spacingRight=4;overflow=hidden;points=[[0,0.5],[1,0.5]];portConstraint=eastwest;rotatable=0;whiteSpace=wrap;html=1;" parent="117" vertex="1">
                    <mxGeometry y="60" width="160" height="30" as="geometry"/>
                </mxCell>
                <mxCell id="120" value="secretKey" style="text;strokeColor=none;fillColor=none;align=left;verticalAlign=middle;spacingLeft=4;spacingRight=4;overflow=hidden;points=[[0,0.5],[1,0.5]];portConstraint=eastwest;rotatable=0;whiteSpace=wrap;html=1;" parent="117" vertex="1">
                    <mxGeometry y="90" width="160" height="30" as="geometry"/>
                </mxCell>
                <mxCell id="123" value="Master Password entschlüsselt die Verschlüsselung des master Keys&lt;br&gt;Falss das ein Erfolg ist ist der User eingeloggt&lt;br&gt;&lt;br&gt;Der entschlüsselte secret Key wird in der Session gespeichert" style="text;html=1;align=center;verticalAlign=middle;resizable=0;points=[];autosize=1;strokeColor=none;fillColor=none;fontSize=18;" parent="1" vertex="1">
                    <mxGeometry x="6260" y="860" width="580" height="100" as="geometry"/>
                </mxCell>
                <mxCell id="124" value="" style="endArrow=classic;html=1;fontSize=18;exitX=0.505;exitY=0.967;exitDx=0;exitDy=0;exitPerimeter=0;entryX=0.5;entryY=1;entryDx=0;entryDy=0;" parent="1" source="120" edge="1">
                    <mxGeometry width="50" height="50" relative="1" as="geometry">
                        <mxPoint x="6700" y="630" as="sourcePoint"/>
                        <mxPoint x="7180.000000000001" y="690" as="targetPoint"/>
                        <Array as="points">
                            <mxPoint x="6521" y="750"/>
                            <mxPoint x="7180" y="750"/>
                        </Array>
                    </mxGeometry>
                </mxCell>
                <mxCell id="130" value="Da der nuter nun angemeldet ist, kann er all seine Categories anschauen" style="text;html=1;align=center;verticalAlign=middle;resizable=0;points=[];autosize=1;strokeColor=none;fillColor=none;fontSize=18;" parent="1" vertex="1">
                    <mxGeometry x="6890" y="880" width="610" height="40" as="geometry"/>
                </mxCell>
                <mxCell id="139" value="Da der Nutzer immer noch angemeldet ist, kann er alle Credentials ebenfalls anzeigen" style="text;html=1;align=center;verticalAlign=middle;resizable=0;points=[];autosize=1;strokeColor=none;fillColor=none;fontSize=18;" parent="1" vertex="1">
                    <mxGeometry x="7750" y="870" width="710" height="40" as="geometry"/>
                </mxCell>
                <mxCell id="140" value="" style="endArrow=classic;html=1;fontSize=18;exitX=0.5;exitY=0;exitDx=0;exitDy=0;entryX=0.5;entryY=0;entryDx=0;entryDy=0;" parent="1" edge="1">
                    <mxGeometry width="50" height="50" relative="1" as="geometry">
                        <mxPoint x="7180.000000000001" y="230" as="sourcePoint"/>
                        <mxPoint x="8100" y="230" as="targetPoint"/>
                        <Array as="points">
                            <mxPoint x="7180" y="170"/>
                            <mxPoint x="8100" y="170"/>
                        </Array>
                    </mxGeometry>
                </mxCell>
                <mxCell id="144" value="&lt;font size=&quot;3&quot;&gt;Entry Details anzeigen&lt;/font&gt;" style="swimlane;whiteSpace=wrap;html=1;fontSize=48;startSize=60;" parent="1" vertex="1">
                    <mxGeometry x="8680" y="230" width="680" height="460" as="geometry"/>
                </mxCell>
                <mxCell id="145" value="Privat" style="rounded=0;whiteSpace=wrap;html=1;fontSize=18;fillColor=#a20025;fontColor=#ffffff;strokeColor=#6F0000;" parent="144" vertex="1">
                    <mxGeometry x="20" y="80" width="140" height="60" as="geometry"/>
                </mxCell>
                <mxCell id="146" value="Arbeit" style="rounded=0;whiteSpace=wrap;html=1;fontSize=18;" parent="144" vertex="1">
                    <mxGeometry x="20" y="140" width="140" height="60" as="geometry"/>
                </mxCell>
                <mxCell id="147" value="Gaming" style="rounded=0;whiteSpace=wrap;html=1;fontSize=18;" parent="144" vertex="1">
                    <mxGeometry x="20" y="200" width="140" height="60" as="geometry"/>
                </mxCell>
                <mxCell id="148" value="Passwort 1" style="rounded=0;whiteSpace=wrap;html=1;fontSize=18;" parent="144" vertex="1">
                    <mxGeometry x="160" y="80" width="140" height="60" as="geometry"/>
                </mxCell>
                <mxCell id="149" value="Passwort 2" style="rounded=0;whiteSpace=wrap;html=1;fontSize=18;fillColor=#a20025;fontColor=#ffffff;strokeColor=#6F0000;" parent="144" vertex="1">
                    <mxGeometry x="160" y="140" width="140" height="60" as="geometry"/>
                </mxCell>
                <mxCell id="150" value="Passwort 3" style="rounded=0;whiteSpace=wrap;html=1;fontSize=18;" parent="144" vertex="1">
                    <mxGeometry x="160" y="200" width="140" height="60" as="geometry"/>
                </mxCell>
                <mxCell id="151" value="" style="rounded=0;whiteSpace=wrap;html=1;fontSize=18;" parent="144" vertex="1">
                    <mxGeometry x="340" y="80" width="310" height="360" as="geometry"/>
                </mxCell>
                <mxCell id="152" value="Passwort 4" style="rounded=0;whiteSpace=wrap;html=1;fontSize=18;" parent="144" vertex="1">
                    <mxGeometry x="160" y="260" width="140" height="60" as="geometry"/>
                </mxCell>
                <mxCell id="153" value="Passwort 5" style="rounded=0;whiteSpace=wrap;html=1;fontSize=18;" parent="144" vertex="1">
                    <mxGeometry x="160" y="320" width="140" height="60" as="geometry"/>
                </mxCell>
                <mxCell id="173" value="&amp;nbsp;max.muster@gmail.com" style="rounded=1;whiteSpace=wrap;html=1;fontSize=18;align=left;" parent="144" vertex="1">
                    <mxGeometry x="430" y="120" width="210" height="30" as="geometry"/>
                </mxCell>
                <mxCell id="175" value="&lt;font style=&quot;font-size: 16px;&quot;&gt;Username&lt;/font&gt;" style="text;html=1;align=left;verticalAlign=middle;resizable=0;points=[];autosize=1;strokeColor=none;fillColor=none;fontSize=18;" parent="144" vertex="1">
                    <mxGeometry x="350" y="115" width="100" height="40" as="geometry"/>
                </mxCell>
                <mxCell id="179" value="&amp;nbsp;***********" style="rounded=1;whiteSpace=wrap;html=1;fontSize=18;align=left;" parent="144" vertex="1">
                    <mxGeometry x="430" y="185" width="210" height="30" as="geometry"/>
                </mxCell>
                <mxCell id="180" value="&lt;font style=&quot;font-size: 16px;&quot;&gt;Password&lt;/font&gt;" style="text;html=1;align=left;verticalAlign=middle;resizable=0;points=[];autosize=1;strokeColor=none;fillColor=none;fontSize=18;" parent="144" vertex="1">
                    <mxGeometry x="350" y="180" width="90" height="40" as="geometry"/>
                </mxCell>
                <mxCell id="181" value="" style="html=1;verticalLabelPosition=bottom;align=center;labelBackgroundColor=#ffffff;verticalAlign=top;strokeWidth=2;strokeColor=#0080F0;shadow=0;dashed=0;shape=mxgraph.ios7.icons.eye;fontSize=16;" parent="144" vertex="1">
                    <mxGeometry x="600" y="192.95" width="20" height="14.1" as="geometry"/>
                </mxCell>
                <mxCell id="182" value="&amp;nbsp;www.google.com" style="rounded=1;whiteSpace=wrap;html=1;fontSize=18;align=left;" parent="144" vertex="1">
                    <mxGeometry x="430" y="245" width="210" height="30" as="geometry"/>
                </mxCell>
                <mxCell id="183" value="&lt;font style=&quot;font-size: 16px;&quot;&gt;Website&lt;/font&gt;" style="text;html=1;align=left;verticalAlign=middle;resizable=0;points=[];autosize=1;strokeColor=none;fillColor=none;fontSize=18;" parent="144" vertex="1">
                    <mxGeometry x="361" y="240" width="80" height="40" as="geometry"/>
                </mxCell>
                <mxCell id="184" value="..." style="rounded=1;whiteSpace=wrap;html=1;fontSize=18;align=center;" parent="144" vertex="1">
                    <mxGeometry x="430" y="295" width="210" height="135" as="geometry"/>
                </mxCell>
                <mxCell id="185" value="&lt;font style=&quot;font-size: 16px;&quot;&gt;Notiz&lt;/font&gt;" style="text;html=1;align=left;verticalAlign=middle;resizable=0;points=[];autosize=1;strokeColor=none;fillColor=none;fontSize=18;" parent="144" vertex="1">
                    <mxGeometry x="350" y="290" width="60" height="40" as="geometry"/>
                </mxCell>
                <mxCell id="154" value="&lt;font size=&quot;3&quot;&gt;Safe entries anzeigen&lt;/font&gt;" style="swimlane;whiteSpace=wrap;html=1;fontSize=48;startSize=60;" parent="1" vertex="1">
                    <mxGeometry x="7770" y="230" width="680" height="460" as="geometry"/>
                </mxCell>
                <mxCell id="155" value="Privat" style="rounded=0;whiteSpace=wrap;html=1;fontSize=18;fillColor=#a20025;fontColor=#ffffff;strokeColor=#6F0000;" parent="154" vertex="1">
                    <mxGeometry x="20" y="80" width="140" height="60" as="geometry"/>
                </mxCell>
                <mxCell id="156" value="Arbeit" style="rounded=0;whiteSpace=wrap;html=1;fontSize=18;" parent="154" vertex="1">
                    <mxGeometry x="20" y="140" width="140" height="60" as="geometry"/>
                </mxCell>
                <mxCell id="157" value="Gaming" style="rounded=0;whiteSpace=wrap;html=1;fontSize=18;" parent="154" vertex="1">
                    <mxGeometry x="20" y="200" width="140" height="60" as="geometry"/>
                </mxCell>
                <mxCell id="158" value="Passwort 1" style="rounded=0;whiteSpace=wrap;html=1;fontSize=18;" parent="154" vertex="1">
                    <mxGeometry x="160" y="80" width="140" height="60" as="geometry"/>
                </mxCell>
                <mxCell id="159" value="Passwort 2" style="rounded=0;whiteSpace=wrap;html=1;fontSize=18;" parent="154" vertex="1">
                    <mxGeometry x="160" y="140" width="140" height="60" as="geometry"/>
                </mxCell>
                <mxCell id="160" value="Passwort 3" style="rounded=0;whiteSpace=wrap;html=1;fontSize=18;" parent="154" vertex="1">
                    <mxGeometry x="160" y="200" width="140" height="60" as="geometry"/>
                </mxCell>
                <mxCell id="162" value="Passwort 4" style="rounded=0;whiteSpace=wrap;html=1;fontSize=18;" parent="154" vertex="1">
                    <mxGeometry x="160" y="260" width="140" height="60" as="geometry"/>
                </mxCell>
                <mxCell id="163" value="Passwort 5" style="rounded=0;whiteSpace=wrap;html=1;fontSize=18;" parent="154" vertex="1">
                    <mxGeometry x="160" y="320" width="140" height="60" as="geometry"/>
                </mxCell>
                <mxCell id="164" value="&lt;font size=&quot;3&quot;&gt;Safes anzeigen&lt;/font&gt;" style="swimlane;whiteSpace=wrap;html=1;fontSize=48;startSize=60;" parent="1" vertex="1">
                    <mxGeometry x="6840" y="230" width="680" height="460" as="geometry"/>
                </mxCell>
                <mxCell id="165" value="Privat" style="rounded=0;whiteSpace=wrap;html=1;fontSize=18;fillColor=#a20025;fontColor=#ffffff;strokeColor=#6F0000;" parent="164" vertex="1">
                    <mxGeometry x="20" y="80" width="140" height="60" as="geometry"/>
                </mxCell>
                <mxCell id="166" value="Arbeit" style="rounded=0;whiteSpace=wrap;html=1;fontSize=18;" parent="164" vertex="1">
                    <mxGeometry x="20" y="140" width="140" height="60" as="geometry"/>
                </mxCell>
                <mxCell id="167" value="Gaming" style="rounded=0;whiteSpace=wrap;html=1;fontSize=18;" parent="164" vertex="1">
                    <mxGeometry x="20" y="200" width="140" height="60" as="geometry"/>
                </mxCell>
                <mxCell id="186" value="" style="endArrow=classic;html=1;fontSize=16;exitX=0.5;exitY=1;exitDx=0;exitDy=0;entryX=0.5;entryY=1;entryDx=0;entryDy=0;" parent="1" source="154" target="144" edge="1">
                    <mxGeometry width="50" height="50" relative="1" as="geometry">
                        <mxPoint x="8630" y="640" as="sourcePoint"/>
                        <mxPoint x="8680" y="590" as="targetPoint"/>
                        <Array as="points">
                            <mxPoint x="8110" y="750"/>
                            <mxPoint x="9020" y="750"/>
                        </Array>
                    </mxGeometry>
                </mxCell>
                <mxCell id="187" value="Da der Nutzer immer noch angemeldet ist, kann er das Credential ebenfalls anzeigen" style="text;html=1;align=center;verticalAlign=middle;resizable=0;points=[];autosize=1;strokeColor=none;fillColor=none;fontSize=18;" parent="1" vertex="1">
                    <mxGeometry x="8675" y="870" width="700" height="40" as="geometry"/>
                </mxCell>
                <mxCell id="189" value="&lt;font style=&quot;font-size: 25px;&quot;&gt;&amp;nbsp;***********&lt;/font&gt;" style="rounded=1;whiteSpace=wrap;html=1;fontSize=18;align=left;" parent="1" vertex="1">
                    <mxGeometry x="9600" y="425.0100000000002" width="360" height="65" as="geometry"/>
                </mxCell>
                <mxCell id="190" value="" style="html=1;verticalLabelPosition=bottom;align=center;labelBackgroundColor=#ffffff;verticalAlign=top;strokeWidth=2;strokeColor=#0080F0;shadow=0;dashed=0;shape=mxgraph.ios7.icons.eye;fontSize=16;" parent="1" vertex="1">
                    <mxGeometry x="9860" y="446.47000000000025" width="50" height="27.05" as="geometry"/>
                </mxCell>
                <mxCell id="192" value="" style="endArrow=classic;html=1;fontSize=25;exitX=0.5;exitY=0;exitDx=0;exitDy=0;entryX=0.5;entryY=0;entryDx=0;entryDy=0;" parent="1" source="144" target="189" edge="1">
                    <mxGeometry width="50" height="50" relative="1" as="geometry">
                        <mxPoint x="9610" y="740" as="sourcePoint"/>
                        <mxPoint x="9660" y="690" as="targetPoint"/>
                        <Array as="points">
                            <mxPoint x="9020" y="170"/>
                            <mxPoint x="9780" y="170"/>
                        </Array>
                    </mxGeometry>
                </mxCell>
                <mxCell id="193" value="Wenn das auge angeklickt wird, wird das verschlüsselte passwort&lt;br&gt;mit dem entschlüsselten secretKey Entschlüsselt" style="text;html=1;align=center;verticalAlign=middle;resizable=0;points=[];autosize=1;strokeColor=none;fillColor=none;fontSize=18;" parent="1" vertex="1">
                    <mxGeometry x="9510" y="860" width="550" height="60" as="geometry"/>
                </mxCell>
                <mxCell id="194" value="" style="endArrow=classic;html=1;fontSize=25;exitX=0.5;exitY=1;exitDx=0;exitDy=0;entryX=0.527;entryY=1.056;entryDx=0;entryDy=0;entryPerimeter=0;" parent="1" source="189" edge="1">
                    <mxGeometry width="50" height="50" relative="1" as="geometry">
                        <mxPoint x="9450" y="690" as="sourcePoint"/>
                        <mxPoint x="10453.779999999999" y="451.67999999999984" as="targetPoint"/>
                        <Array as="points">
                            <mxPoint x="9780" y="750"/>
                            <mxPoint x="10454" y="750"/>
                        </Array>
                    </mxGeometry>
                </mxCell>
                <mxCell id="201" value="&lt;font style=&quot;font-size: 25px;&quot;&gt;MeinSicheresPAasswort123&lt;/font&gt;" style="rounded=1;whiteSpace=wrap;html=1;fontSize=18;align=center;" parent="1" vertex="1">
                    <mxGeometry x="10280" y="381.47" width="360" height="65" as="geometry"/>
                </mxCell>
                <mxCell id="206" value="Was es so sicher macht:&lt;br&gt;&lt;ul&gt;&lt;li&gt;Keine Speicherung des Master Passwortes&lt;/li&gt;&lt;li&gt;Die passwörter sind symetrisch auf der Datenbank verschlüsselt&lt;/li&gt;&lt;li&gt;Session authentication&lt;/li&gt;&lt;/ul&gt;" style="text;html=1;align=left;verticalAlign=middle;resizable=0;points=[];autosize=1;strokeColor=none;fillColor=none;fontSize=26;" parent="1" vertex="1">
                    <mxGeometry x="1795" y="-495" width="800" height="210" as="geometry"/>
                </mxCell>
                <mxCell id="207" value="&lt;font style=&quot;font-size: 48px;&quot;&gt;Passwort Reset&lt;/font&gt;" style="text;html=1;align=center;verticalAlign=middle;resizable=0;points=[];autosize=1;strokeColor=none;fillColor=none;" parent="1" vertex="1">
                    <mxGeometry x="1795" y="1780" width="360" height="70" as="geometry"/>
                </mxCell>
                <mxCell id="208" value="&lt;font style=&quot;font-size: 48px;&quot;&gt;Einloggen und Anzeigen&lt;/font&gt;" style="text;html=1;align=center;verticalAlign=middle;resizable=0;points=[];autosize=1;strokeColor=none;fillColor=none;" parent="1" vertex="1">
                    <mxGeometry x="1820" y="-85" width="540" height="70" as="geometry"/>
                </mxCell>
                <mxCell id="209" value="&lt;font size=&quot;3&quot;&gt;Einloggen&lt;/font&gt;" style="swimlane;whiteSpace=wrap;html=1;fontSize=48;startSize=60;" parent="1" vertex="1">
                    <mxGeometry x="1805" y="2200" width="680" height="460" as="geometry"/>
                </mxCell>
                <mxCell id="210" value="Altes Passwort" style="rounded=0;whiteSpace=wrap;html=1;fontSize=18;" parent="209" vertex="1">
                    <mxGeometry x="40" y="105" width="600" height="60" as="geometry"/>
                </mxCell>
                <mxCell id="211" value="Neues Passwort" style="rounded=0;whiteSpace=wrap;html=1;fontSize=18;" parent="209" vertex="1">
                    <mxGeometry x="40" y="200" width="600" height="60" as="geometry"/>
                </mxCell>
                <mxCell id="212" value="Neues Passwort" style="rounded=0;whiteSpace=wrap;html=1;fontSize=18;" parent="209" vertex="1">
                    <mxGeometry x="40" y="280" width="600" height="60" as="geometry"/>
                </mxCell>
                <mxCell id="213" value="Vorrausetzungen:&lt;br&gt;&lt;ul&gt;&lt;li&gt;Nutzer ist eingeloggt&lt;/li&gt;&lt;li&gt;Nutzer kennt das alte Passwort noch&lt;/li&gt;&lt;/ul&gt;&lt;div&gt;Da das Masterpasswort nie mals gespeichert wird, kann dieses auch nicht zurückgesetzt werden,&lt;/div&gt;&lt;div&gt;es wird lediglich der alte MasterKey mit einem neuen Key überschrieben, welcher dann zum neuen master Passwort passt&lt;/div&gt;&lt;div&gt;&lt;br&gt;&lt;/div&gt;&lt;div&gt;Eventuell wird der Nutzer nach dem Passwortreset&amp;nbsp;&lt;/div&gt;" style="text;html=1;align=left;verticalAlign=middle;resizable=0;points=[];autosize=1;strokeColor=none;fillColor=none;fontSize=26;" parent="1" vertex="1">
                    <mxGeometry x="1805" y="1865" width="1430" height="300" as="geometry"/>
                </mxCell>
                <mxCell id="218" value="" style="endArrow=classic;html=1;fontSize=26;exitX=1;exitY=0.5;exitDx=0;exitDy=0;entryX=0;entryY=0.5;entryDx=0;entryDy=0;" parent="1" source="209" edge="1">
                    <mxGeometry width="50" height="50" relative="1" as="geometry">
                        <mxPoint x="2845" y="2180" as="sourcePoint"/>
                        <mxPoint x="2825" y="2430.0000000000005" as="targetPoint"/>
                    </mxGeometry>
                </mxCell>
                <mxCell id="220" value="&lt;font style=&quot;font-size: 14px;&quot;&gt;Eigabe und absenden&lt;/font&gt;" style="text;html=1;align=center;verticalAlign=middle;resizable=0;points=[];autosize=1;strokeColor=none;fillColor=none;fontSize=26;rotation=0;" parent="1" vertex="1">
                    <mxGeometry x="2565" y="2460" width="160" height="40" as="geometry"/>
                </mxCell>
                <mxCell id="222" value="&lt;span style=&quot;font-size: 16px;&quot;&gt;verschlüsselter secret Key wird gefeched&lt;/span&gt;" style="text;html=1;align=center;verticalAlign=middle;resizable=0;points=[];autosize=1;strokeColor=none;fillColor=none;fontSize=26;" parent="1" vertex="1">
                    <mxGeometry x="2750" y="2560" width="310" height="40" as="geometry"/>
                </mxCell>
                <mxCell id="228" value="User" style="swimlane;fontStyle=0;childLayout=stackLayout;horizontal=1;startSize=30;horizontalStack=0;resizeParent=1;resizeParentMax=0;resizeLast=0;collapsible=1;marginBottom=0;whiteSpace=wrap;html=1;" parent="1" vertex="1">
                    <mxGeometry x="2825" y="2360" width="140" height="120" as="geometry"/>
                </mxCell>
                <mxCell id="229" value="Int ID" style="text;strokeColor=none;fillColor=none;align=left;verticalAlign=middle;spacingLeft=4;spacingRight=4;overflow=hidden;points=[[0,0.5],[1,0.5]];portConstraint=eastwest;rotatable=0;whiteSpace=wrap;html=1;" parent="228" vertex="1">
                    <mxGeometry y="30" width="140" height="30" as="geometry"/>
                </mxCell>
                <mxCell id="230" value="String Email" style="text;strokeColor=none;fillColor=none;align=left;verticalAlign=middle;spacingLeft=4;spacingRight=4;overflow=hidden;points=[[0,0.5],[1,0.5]];portConstraint=eastwest;rotatable=0;whiteSpace=wrap;html=1;" parent="228" vertex="1">
                    <mxGeometry y="60" width="140" height="30" as="geometry"/>
                </mxCell>
                <mxCell id="231" value="masterKey" style="text;strokeColor=none;fillColor=none;align=left;verticalAlign=middle;spacingLeft=4;spacingRight=4;overflow=hidden;points=[[0,0.5],[1,0.5]];portConstraint=eastwest;rotatable=0;whiteSpace=wrap;html=1;" parent="228" vertex="1">
                    <mxGeometry y="90" width="140" height="30" as="geometry"/>
                </mxCell>
                <mxCell id="232" value="" style="endArrow=classic;html=1;fontSize=26;exitX=1;exitY=0.5;exitDx=0;exitDy=0;entryX=0;entryY=0.5;entryDx=0;entryDy=0;" parent="1" edge="1">
                    <mxGeometry width="50" height="50" relative="1" as="geometry">
                        <mxPoint x="2965" y="2429.2300000000005" as="sourcePoint"/>
                        <mxPoint x="3305" y="2429.2300000000005" as="targetPoint"/>
                    </mxGeometry>
                </mxCell>
                <mxCell id="233" value="&lt;font size=&quot;3&quot;&gt;Einloggen&lt;/font&gt;" style="swimlane;whiteSpace=wrap;html=1;fontSize=48;startSize=60;" parent="1" vertex="1">
                    <mxGeometry x="3305" y="2190" width="680" height="460" as="geometry"/>
                </mxCell>
                <mxCell id="235" value="Sucess" style="rounded=0;whiteSpace=wrap;html=1;fontSize=18;" parent="233" vertex="1">
                    <mxGeometry x="40" y="140" width="600" height="60" as="geometry"/>
                </mxCell>
                <mxCell id="237" value="&lt;font style=&quot;font-size: 14px;&quot;&gt;Entschlüsseliung secret key mit altem passwort&lt;/font&gt;" style="text;html=1;align=center;verticalAlign=middle;resizable=0;points=[];autosize=1;strokeColor=none;fillColor=none;fontSize=26;rotation=0;" parent="1" vertex="1">
                    <mxGeometry x="2985" y="2460" width="320" height="40" as="geometry"/>
                </mxCell>
                <mxCell id="238" value="&lt;span style=&quot;font-size: 16px;&quot;&gt;Falss die entschlüsselung des masterKeys erfolgreich und die beiden neuen eingegbenen passwörter übereinstimmen, wird ein neuer secret Key generiert,&lt;br&gt;welcher dann den alten secret key überschreibt&lt;br&gt;&lt;/span&gt;" style="text;html=1;align=center;verticalAlign=middle;resizable=0;points=[];autosize=1;strokeColor=none;fillColor=none;fontSize=26;" parent="1" vertex="1">
                    <mxGeometry x="3105" y="2700" width="1120" height="80" as="geometry"/>
                </mxCell>
                <mxCell id="240" value="User" style="swimlane;fontStyle=0;childLayout=stackLayout;horizontal=1;startSize=30;horizontalStack=0;resizeParent=1;resizeParentMax=0;resizeLast=0;collapsible=1;marginBottom=0;whiteSpace=wrap;html=1;" parent="1" vertex="1">
                    <mxGeometry x="4355" y="2340" width="140" height="120" as="geometry"/>
                </mxCell>
                <mxCell id="241" value="Int ID" style="text;strokeColor=none;fillColor=none;align=left;verticalAlign=middle;spacingLeft=4;spacingRight=4;overflow=hidden;points=[[0,0.5],[1,0.5]];portConstraint=eastwest;rotatable=0;whiteSpace=wrap;html=1;" parent="240" vertex="1">
                    <mxGeometry y="30" width="140" height="30" as="geometry"/>
                </mxCell>
                <mxCell id="242" value="String Email" style="text;strokeColor=none;fillColor=none;align=left;verticalAlign=middle;spacingLeft=4;spacingRight=4;overflow=hidden;points=[[0,0.5],[1,0.5]];portConstraint=eastwest;rotatable=0;whiteSpace=wrap;html=1;" parent="240" vertex="1">
                    <mxGeometry y="60" width="140" height="30" as="geometry"/>
                </mxCell>
                <mxCell id="243" value="masterKey" style="text;strokeColor=none;fillColor=none;align=left;verticalAlign=middle;spacingLeft=4;spacingRight=4;overflow=hidden;points=[[0,0.5],[1,0.5]];portConstraint=eastwest;rotatable=0;whiteSpace=wrap;html=1;" parent="240" vertex="1">
                    <mxGeometry y="90" width="140" height="30" as="geometry"/>
                </mxCell>
                <mxCell id="244" value="" style="endArrow=classic;html=1;fontSize=14;entryX=0;entryY=0.5;entryDx=0;entryDy=0;exitX=1;exitY=0.5;exitDx=0;exitDy=0;" parent="1" source="233" target="242" edge="1">
                    <mxGeometry width="50" height="50" relative="1" as="geometry">
                        <mxPoint x="3605" y="2370" as="sourcePoint"/>
                        <mxPoint x="3655" y="2320" as="targetPoint"/>
                    </mxGeometry>
                </mxCell>
                <mxCell id="246" value="&lt;span style=&quot;color: rgba(0, 0, 0, 0); font-family: monospace; font-size: 0px; text-align: start;&quot;&gt;f&lt;/span&gt;" style="text;html=1;align=center;verticalAlign=middle;resizable=0;points=[];autosize=1;strokeColor=none;fillColor=none;fontSize=14;" parent="1" vertex="1">
                    <mxGeometry x="4155" y="2445" width="20" height="30" as="geometry"/>
                </mxCell>
                <mxCell id="247" value="masterkey wird verschlüssselt" style="text;html=1;align=center;verticalAlign=middle;resizable=0;points=[];autosize=1;strokeColor=none;fillColor=none;fontSize=14;" parent="1" vertex="1">
                    <mxGeometry x="4065" y="2450" width="210" height="30" as="geometry"/>
                </mxCell>
                <mxCell id="248" value="Verschlüsselter masterKey überschreibt den alten masterKey auf der Datenbank" style="text;html=1;align=center;verticalAlign=middle;resizable=0;points=[];autosize=1;strokeColor=none;fillColor=none;fontSize=14;" parent="1" vertex="1">
                    <mxGeometry x="4195" y="2540" width="520" height="30" as="geometry"/>
                </mxCell>
                <mxCell id="261" value="Frontend fetcht sobald eine Emailadresse eingegeben wurde die verschlüsselte UUID&lt;br&gt;&lt;br&gt;Request: localhost:8080/user/email={email}?uuid=" style="text;html=1;align=center;verticalAlign=middle;resizable=0;points=[];autosize=1;strokeColor=none;fillColor=none;fontSize=18;" parent="1" vertex="1">
                    <mxGeometry x="1820" y="740" width="710" height="80" as="geometry"/>
                </mxCell>
                <mxCell id="266" value="PostMapping" style="swimlane;fontStyle=0;childLayout=stackLayout;horizontal=1;startSize=30;horizontalStack=0;resizeParent=1;resizeParentMax=0;resizeLast=0;collapsible=1;marginBottom=0;whiteSpace=wrap;html=1;" parent="1" vertex="1">
                    <mxGeometry x="2790" y="390" width="410" height="90" as="geometry"/>
                </mxCell>
                <mxCell id="267" value="Endpoint ULR:&amp;nbsp; localhost:8080/users/email={email}?uuid=@Pathvariable" style="text;strokeColor=none;fillColor=none;align=left;verticalAlign=middle;spacingLeft=4;spacingRight=4;overflow=hidden;points=[[0,0.5],[1,0.5]];portConstraint=eastwest;rotatable=0;whiteSpace=wrap;html=1;" parent="266" vertex="1">
                    <mxGeometry y="30" width="410" height="30" as="geometry"/>
                </mxCell>
                <mxCell id="268" value="Return Value: Base64 verschlüsselte UUID" style="text;strokeColor=none;fillColor=none;align=left;verticalAlign=middle;spacingLeft=4;spacingRight=4;overflow=hidden;points=[[0,0.5],[1,0.5]];portConstraint=eastwest;rotatable=0;whiteSpace=wrap;html=1;" parent="266" vertex="1">
                    <mxGeometry y="60" width="410" height="30" as="geometry"/>
                </mxCell>
                <mxCell id="270" value="&lt;span style=&quot;color: rgb(240, 240, 240); font-family: Helvetica; font-size: 18px; font-style: normal; font-variant-ligatures: normal; font-variant-caps: normal; font-weight: 400; letter-spacing: normal; orphans: 2; text-align: center; text-indent: 0px; text-transform: none; widows: 2; word-spacing: 0px; -webkit-text-stroke-width: 0px; background-color: rgb(24, 20, 29); text-decoration-thickness: initial; text-decoration-style: initial; text-decoration-color: initial; float: none; display: inline !important;&quot;&gt;Das Backend erkennt das die UUID leer ist, weshalb er eine UUID generiert und verschlüsselt an das Frontend zurücksendet wird, ausserdem wird gleichzeitig für den User eine UUID im backend gesetzt&lt;/span&gt;" style="text;whiteSpace=wrap;html=1;" parent="1" vertex="1">
                    <mxGeometry x="2745" y="810" width="560" height="70" as="geometry"/>
                </mxCell>
                <mxCell id="271" value="&lt;font size=&quot;3&quot;&gt;Einloggen&lt;/font&gt;" style="swimlane;whiteSpace=wrap;html=1;fontSize=48;startSize=60;" parent="1" vertex="1">
                    <mxGeometry x="3480" y="230" width="680" height="460" as="geometry"/>
                </mxCell>
                <mxCell id="272" value="E-Mail" style="rounded=0;whiteSpace=wrap;html=1;fontSize=18;" parent="271" vertex="1">
                    <mxGeometry x="40" y="105" width="600" height="60" as="geometry"/>
                </mxCell>
                <mxCell id="273" value="Password" style="rounded=0;whiteSpace=wrap;html=1;fontSize=18;" parent="271" vertex="1">
                    <mxGeometry x="40" y="200" width="600" height="60" as="geometry"/>
                </mxCell>
                <mxCell id="275" value="Send" style="rounded=1;whiteSpace=wrap;html=1;" vertex="1" parent="271">
                    <mxGeometry x="280" y="370" width="120" height="30" as="geometry"/>
                </mxCell>
                <mxCell id="274" value="&lt;br&gt;Der User gibt jetzt auch noch sein Passwort ein und klickt auf senden&lt;br&gt;&lt;br&gt;Jetzt wird der Request: &lt;br&gt;&lt;br&gt;localhost:8080/user/email={email}?uuid={encryptedUUID}&lt;br&gt;&lt;br&gt;Gesendet" style="text;html=1;align=center;verticalAlign=middle;resizable=0;points=[];autosize=1;strokeColor=none;fillColor=none;fontSize=18;" parent="1" vertex="1">
                    <mxGeometry x="4590" y="820" width="580" height="190" as="geometry"/>
                </mxCell>
                <mxCell id="277" value="Die UUID wird im Frontend mit dem selben Passwort wie es im backend verschlüsselt worden ist entschlüsselt,&lt;br&gt;Danach wird die entschlüsselte UUID erneut mit einem neuen Passort synchron verschlüsselt" style="text;html=1;align=center;verticalAlign=middle;resizable=0;points=[];autosize=1;strokeColor=none;fillColor=none;fontSize=18;" vertex="1" parent="1">
                    <mxGeometry x="3410" y="830" width="910" height="60" as="geometry"/>
                </mxCell>
                <mxCell id="278" value="&lt;font size=&quot;3&quot;&gt;Einloggen&lt;/font&gt;" style="swimlane;whiteSpace=wrap;html=1;fontSize=48;startSize=60;" vertex="1" parent="1">
                    <mxGeometry x="4520" y="220" width="680" height="460" as="geometry"/>
                </mxCell>
                <mxCell id="279" value="E-Mail" style="rounded=0;whiteSpace=wrap;html=1;fontSize=18;" vertex="1" parent="278">
                    <mxGeometry x="40" y="105" width="600" height="60" as="geometry"/>
                </mxCell>
                <mxCell id="280" value="Password" style="rounded=0;whiteSpace=wrap;html=1;fontSize=18;" vertex="1" parent="278">
                    <mxGeometry x="40" y="200" width="600" height="60" as="geometry"/>
                </mxCell>
                <mxCell id="281" value="Send" style="rounded=1;whiteSpace=wrap;html=1;" vertex="1" parent="278">
                    <mxGeometry x="280" y="370" width="120" height="30" as="geometry"/>
                </mxCell>
                <mxCell id="282" value="PostMapping" style="swimlane;fontStyle=0;childLayout=stackLayout;horizontal=1;startSize=30;horizontalStack=0;resizeParent=1;resizeParentMax=0;resizeLast=0;collapsible=1;marginBottom=0;whiteSpace=wrap;html=1;" vertex="1" parent="1">
                    <mxGeometry x="5500" y="410" width="410" height="90" as="geometry"/>
                </mxCell>
                <mxCell id="283" value="Endpoint ULR:&amp;nbsp; localhost:8080/users/email={email}?uuid=@Pathvariable" style="text;strokeColor=none;fillColor=none;align=left;verticalAlign=middle;spacingLeft=4;spacingRight=4;overflow=hidden;points=[[0,0.5],[1,0.5]];portConstraint=eastwest;rotatable=0;whiteSpace=wrap;html=1;" vertex="1" parent="282">
                    <mxGeometry y="30" width="410" height="30" as="geometry"/>
                </mxCell>
                <mxCell id="284" value="Return Value: User(Id: Long, secretKey: String, email: String)" style="text;strokeColor=none;fillColor=none;align=left;verticalAlign=middle;spacingLeft=4;spacingRight=4;overflow=hidden;points=[[0,0.5],[1,0.5]];portConstraint=eastwest;rotatable=0;whiteSpace=wrap;html=1;" vertex="1" parent="282">
                    <mxGeometry y="60" width="410" height="30" as="geometry"/>
                </mxCell>
                <mxCell id="285" value="Nun erkennt der selbe Endpoint das eine UUID vorhanden ist. Die UUID wird also jetzt&lt;br&gt;im backend entschlüsselt und mit der UUID welche beim user in der Datenbank gespeichert wird abgegelichen&lt;br&gt;Falls die beiden UUIDs übereinstimen, wird der User(id, Secret Key, Email) als antwort geschickt" style="text;html=1;align=center;verticalAlign=middle;resizable=0;points=[];autosize=1;strokeColor=none;fillColor=none;fontSize=18;" vertex="1" parent="1">
                    <mxGeometry x="5290" y="870" width="900" height="80" as="geometry"/>
                </mxCell>
                <mxCell id="287" value="" style="endArrow=classic;html=1;entryX=0.5;entryY=0;entryDx=0;entryDy=0;exitX=0.5;exitY=0;exitDx=0;exitDy=0;" edge="1" parent="1" source="111" target="266">
                    <mxGeometry width="50" height="50" relative="1" as="geometry">
                        <mxPoint x="2490" y="460" as="sourcePoint"/>
                        <mxPoint x="3770" y="1250" as="targetPoint"/>
                        <Array as="points">
                            <mxPoint x="2160" y="130"/>
                            <mxPoint x="2995" y="130"/>
                        </Array>
                    </mxGeometry>
                </mxCell>
                <mxCell id="288" value="" style="endArrow=classic;html=1;entryX=0.5;entryY=1;entryDx=0;entryDy=0;" edge="1" parent="1" target="271">
                    <mxGeometry width="50" height="50" relative="1" as="geometry">
                        <mxPoint x="2995" y="480" as="sourcePoint"/>
                        <mxPoint x="3190" y="670" as="targetPoint"/>
                        <Array as="points">
                            <mxPoint x="2995" y="750"/>
                            <mxPoint x="3820" y="750"/>
                        </Array>
                    </mxGeometry>
                </mxCell>
                <mxCell id="289" value="" style="endArrow=classic;html=1;exitX=0.5;exitY=0;exitDx=0;exitDy=0;entryX=0.5;entryY=0;entryDx=0;entryDy=0;" edge="1" parent="1" source="271" target="278">
                    <mxGeometry width="50" height="50" relative="1" as="geometry">
                        <mxPoint x="4610" y="670" as="sourcePoint"/>
                        <mxPoint x="4660" y="620" as="targetPoint"/>
                        <Array as="points">
                            <mxPoint x="3820" y="150"/>
                            <mxPoint x="4860" y="150"/>
                        </Array>
                    </mxGeometry>
                </mxCell>
                <mxCell id="290" value="" style="endArrow=classic;html=1;exitX=0.5;exitY=1;exitDx=0;exitDy=0;entryX=0.536;entryY=1.19;entryDx=0;entryDy=0;entryPerimeter=0;" edge="1" parent="1" source="278" target="284">
                    <mxGeometry width="50" height="50" relative="1" as="geometry">
                        <mxPoint x="5260" y="1220" as="sourcePoint"/>
                        <mxPoint x="5310" y="1170" as="targetPoint"/>
                        <Array as="points">
                            <mxPoint x="4860" y="740"/>
                            <mxPoint x="5720" y="740"/>
                        </Array>
                    </mxGeometry>
                </mxCell>
                <mxCell id="291" value="" style="endArrow=classic;html=1;exitX=0.5;exitY=0;exitDx=0;exitDy=0;entryX=0.5;entryY=0;entryDx=0;entryDy=0;" edge="1" parent="1" source="282" target="117">
                    <mxGeometry width="50" height="50" relative="1" as="geometry">
                        <mxPoint x="6190" y="1370" as="sourcePoint"/>
                        <mxPoint x="6240" y="1320" as="targetPoint"/>
                        <Array as="points">
                            <mxPoint x="5705" y="310"/>
                            <mxPoint x="6520" y="310"/>
                        </Array>
                    </mxGeometry>
                </mxCell>
            </root>
        </mxGraphModel>
    </diagram>
</mxfile>